<?xml version="1.0" encoding="utf-8"?>
<!-- Generator: Adobe Illustrator 17.1.0, SVG Export Plug-In . SVG Version: 6.00 Build 0)  -->
<!DOCTYPE svg PUBLIC "-//W3C//DTD SVG 1.1//EN" "http://www.w3.org/Graphics/SVG/1.1/DTD/svg11.dtd">
<svg version="1.1" id="idea-bulb" xmlns="http://www.w3.org/2000/svg" xmlns:xlink="http://www.w3.org/1999/xlink" x="0px" y="0px"
	 viewBox="0 0 1009.9766 1009.9527" enable-background="new 0 0 1009.9766 1009.9527" xml:space="preserve">
<g id="idea-bulb-label">
	<path fill="#F6AB38" d="M504.9644,0C226.084,0,0,226.1314,0,505c0,278.8921,226.084,504.9527,504.9644,504.9527
		S1009.9766,783.8921,1009.9766,505C1009.9766,226.1314,783.8447,0,504.9644,0z"/>
</g>
<g id="idea-bulb-idea-bulb">
	<path fill="#FFFFFF" d="M554.5664,729.9878h-99.1572c-5.7207,0-10.3447,4.6358-10.3447,10.3565
		c0,5.7206,4.624,10.3564,10.3447,10.3564h99.1572c5.7207,0,10.3457-4.6357,10.3457-10.3564
		C564.9121,734.6236,560.2871,729.9878,554.5664,729.9878z"/>
	<path fill="#FFFFFF" d="M554.5664,759.6987h-99.1572c-5.7207,0-10.3447,4.624-10.3447,10.3331
		c0,5.7207,4.624,10.3564,10.3447,10.3564h99.1572c5.7207,0,10.3457-4.6357,10.3457-10.3564
		C564.9121,764.3228,560.2871,759.6987,554.5664,759.6987z"/>
	<path fill="#FFFFFF" d="M520.3623,789.398h-30.7246c-5.7207,0-10.3447,4.625-10.3447,10.3456c0,5.708,4.624,10.332,10.3447,10.332
		h30.7246c5.6963,0,10.3448-4.624,10.3448-10.332C530.7071,794.023,526.0586,789.398,520.3623,789.398z"/>
	<path fill="#FFFFFF" d="M506.6563,199.8765c-126.3062-0.9063-229.4204,100.7187-230.3501,227.0254
		c-0.6436,88.9316,49.6264,166.3388,123.4941,204.7031c24.0742,15.5879,39.9487,42.749,39.7105,73.5693
		c-0.0713,9.9873,28.2934,11.7276,63.332,11.9659c35.0391,0.2734,63.5225-1.0606,63.5947-11.0723
		c0.2139-30.8789,16.5654-57.8379,40.9737-73.0566c74.3203-37.3038,125.6152-113.9239,126.2587-202.7964
		C734.5996,303.9082,632.9395,200.794,506.6563,199.8765z M625.1934,573.3736c-78.4209,66.3593-195.8125,56.6103-262.1719-21.7979
		c-66.3833-78.4082-56.6343-195.7886,21.7861-262.1597c78.42-66.395,195.7881-56.6225,262.1709,21.7857
		C713.3613,389.6104,703.6133,506.9898,625.1934,573.3736z"/>
	<rect x="361.6153" y="376.7388" fill="#FFFFFF" width="30.081" height="100.6953"/>
	<path fill="#FFFFFF" d="M469.4966,381.8277c-5.1724-2.1807-9.8442-3.5513-13.9917-4.1592
		c-4.1475-0.6079-8.8906-0.9297-14.2778-0.9297h-35.1343v100.6953h30.081v-70.6143h5.625c18.2823,0,27.4117,6.7334,27.4117,20.189
		c0,6.1138-2.0977,11.0239-6.2925,14.7544c-4.1953,3.7305-9.8682,5.5776-17.0191,5.5776h-5.2202v30.0933h4.815
		c8.3667,0,16.4233-1.6211,24.146-4.8271c9.2246-3.9449,16.4707-9.9512,21.7382-17.9722
		c5.2676-8.0566,7.8897-17.2212,7.8897-27.4712c0-10.166-2.6455-19.3066-7.9375-27.4111
		C485.9912,391.648,478.7207,385.689,469.4966,381.8277z"/>
	<path fill="#FFFFFF" d="M530.1348,378.3833c-4.3613,1.0611-8.1035,2.8726-11.2266,5.4229
		c-4.624,3.7661-7.6269,8.1401-9.0332,13.1455c-0.9541,3.2773-1.4306,8.4975-1.4306,15.6484v37.708
		c0,4.6123,1.2871,8.9507,3.8378,13.0742c2.5264,4.0879,6.1495,7.4014,10.8692,9.9395c3.289,1.7764,6.459,2.9199,9.5342,3.397
		c3.0507,0.4765,6.8408,0.7153,11.3691,0.7153h20.8809V448.044h-22c-3.8858,0-5.8164-1.6919-5.8164-5.065
		c0-1.8828,0.4531-3.1465,1.3349-3.7661c0.9053-0.6079,2.4072-0.9057,4.4815-0.9057h20.7363v-22.4537h-17.9238
		c-3.9571,0-5.9356-1.6919-5.9356-5.0766c0-1.8833,0.4766-3.1348,1.4063-3.7422c0.9531-0.6201,2.455-0.9297,4.5293-0.9297h19.1875
		v-29.3662h-19.3311C539.6699,376.7388,534.5215,377.2871,530.1348,378.3833z"/>
	<path fill="#FFFFFF" d="M648.4092,406.105c-1.1445-6.0308-3.1709-11.2744-6.0781-15.8037
		c-6.7697-10.3565-16.4229-15.541-28.961-15.541c-8.5576,0-15.8505,2.4433-21.8818,7.3418
		c-6.0059,4.8984-10.2246,11.8467-12.5605,20.9043c-0.9541,3.5752-1.4786,6.6142-1.6211,9.1172
		c-0.1436,2.4907-0.2149,6.352-0.2149,11.6201v53.6904h30.7959v-23.5976h7.7471v-26.6729h-7.7471v-10.6064
		c0-3.8497,0.3574-6.6626,1.1201-8.4024c0.7393-1.7402,2.336-2.5986,4.791-2.5986c4.2432,0,6.3643,3.6474,6.3643,11.001v60.8769
		h29.5088v-53.6904C649.6719,416.6167,649.2432,410.7173,648.4092,406.105z"/>
</g>
</svg>
