<?xml version="1.0" encoding="utf-8"?>
<svg viewBox="0 0 853.33331 853.33331" xmlns="http://www.w3.org/2000/svg">
  <g transform="matrix(1.3333332538604736, 0, 0, -1.3333332538604736, 0, 853.3333129882812)" id="g10">
    <g transform="scale(0.1)" id="g12">
      <path id="path14" style="fill-opacity: 1; fill-rule: nonzero; stroke: none; fill: rgb(205, 33, 41);" d="m 3681.74,2020 c 0,-45.27 -41.92,-80 -93.67,-80 h -829.68 c -51.74,0 -93.67,34.73 -93.67,80 v 0 c 0,45.27 41.93,80 93.67,80 h 829.68 c 51.75,0 93.67,-34.73 93.67,-80 v 0"/>
      <path id="path16" style="fill-opacity: 1; fill-rule: nonzero; stroke: none; fill: rgb(205, 33, 41);" d="m 3695.13,1865 c 0,-25.45 -41.93,-55 -93.67,-55 h -829.68 c -51.75,0 -93.67,29.55 -93.67,55 v 0 c 0,25.46 41.92,55 93.67,55 h 829.68 c 51.74,0 93.67,-29.54 93.67,-55 v 0"/>
      <path id="path18" style="fill-opacity: 1; fill-rule: nonzero; stroke: none; fill: rgb(205, 33, 41);" d="m 3681.74,1700 c 0,-36.38 -41.92,-80 -93.67,-80 h -829.68 c -51.74,0 -93.67,43.62 -93.67,80 v 0 c 0,36.38 41.93,80 93.67,80 h 829.68 c 51.75,0 93.67,-43.62 93.67,-80 v 0"/>
      <path id="path20" style="fill-opacity: 1; fill-rule: nonzero; stroke: none; fill: rgb(205, 33, 41);" d="m 2718.91,2067.58 c -19.74,108.47 -221.51,289.57 -297.59,350.2 -345.99,245.09 -553.64,646.4 -553.64,1072.14 0,724.94 589.79,1314.76 1314.75,1314.76 724.97,0 1314.77,-589.82 1314.77,-1314.76 0,-425.63 -207.55,-826.84 -555.2,-1073.26 -108.95,-86.41 -290.95,-253.31 -308.11,-328.06 l -78.26,17.98 c 29.1,126.55 306.68,349.31 338.26,374.3 328.11,232.69 523,609.42 523,1009.04 0,680.7 -553.76,1234.47 -1234.46,1234.47 -680.69,0 -1234.46,-553.77 -1234.46,-1234.47 0,-399.72 194.97,-776.56 521.57,-1007.97 32.2,-25.56 299.73,-242.49 328.35,-399.99 l -78.98,-14.38"/>
      <path id="path22" style="fill-opacity: 1; fill-rule: nonzero; stroke: none; fill: rgb(205, 33, 41);" d="M 835.344 4199.02 C 829.9340000000001 4199.02 824.441 4200.120000000001 819.1990000000001 4202.450000000001 C 798.9180000000001 4211.39 789.6880000000001 4235.070000000001 798.6210000000001 4255.35 C 809.4410000000001 4279.92 820.6050000000001 4304.22 832.1560000000001 4328.370000000001 C 841.7460000000001 4348.390000000001 865.6840000000001 4356.860000000001 885.715 4347.27 C 905.715 4337.700000000001 914.172 4313.740000000001 904.609 4293.740000000001 C 893.4300000000001 4270.35 882.5780000000001 4246.77 872.1170000000001 4222.990000000001 C 865.48 4207.990000000001 850.7620000000001 4199.02 835.344 4199.02 Z"/>
      <path id="path22" style="fill-opacity: 1; fill-rule: nonzero; stroke: none; fill: rgb(205, 33, 41);" d="M 617.313 3158.7200000000003 C 595.156 3158.7200000000003 577.18 3176.6800000000003 577.18 3198.8700000000003 C 577.18 3343.9800000000005 589.1479999999999 3489.6100000000006 612.742 3631.7400000000002 C 616.3789999999999 3653.61 637.0039999999999 3668.38 658.9259999999999 3664.7700000000004 C 680.77 3661.1400000000003 695.574 3640.4700000000003 691.9409999999999 3618.5900000000006 C 669.0699999999999 3480.7700000000004 657.4609999999999 3339.580000000001 657.4609999999999 3198.870000000001 C 657.4609999999999 3176.6800000000007 639.4799999999999 3158.7200000000007 617.3129999999999 3158.7200000000007"/>
      <path id="path22" style="fill-opacity: 1; fill-rule: nonzero; stroke: none; fill: rgb(205, 33, 41);" d="M 672.129 3690.2300000000005 C 669.3870000000001 3690.2300000000005 666.641 3690.5400000000004 663.867 3691.1200000000003 C 642.1479999999999 3695.6400000000003 628.242 3716.9100000000003 632.793 3738.6300000000006 C 647.527 3809.2000000000007 665.488 3880.0800000000004 686.133 3949.370000000001 C 692.488 3970.620000000001 714.855 3982.670000000001 736.086 3976.370000000001 C 757.336 3970.040000000001 769.402 3947.670000000001 763.0740000000001 3926.420000000001 C 743.0590000000001 3859.280000000001 725.676 3790.590000000001 711.355 3722.170000000001 C 707.41 3703.250000000001 690.715 3690.230000000001 672.129 3690.230000000001 L 672.129 3690.2300000000005 Z"/>
      <path id="path22" style="fill-opacity: 1; fill-rule: nonzero; stroke: none; fill: rgb(205, 33, 41);" d="M 757.336 3999.6800000000003 C 752.996 3999.6800000000003 748.605 4000.4100000000003 744.27 4001.8700000000003 C 723.3009999999999 4009.09 712.156 4031.9300000000003 719.348 4052.9000000000005 C 731.145 4087.1900000000005 743.77 4121.530000000001 756.887 4154.990000000001 C 764.949 4175.68 788.328 4185.880000000001 808.895 4177.72 C 829.543 4169.64 839.7339999999999 4146.360000000001 831.641 4125.71 C 818.938 4093.28 806.699 4060 795.305 4026.81 C 789.578 4010.14 774.0039999999999 3999.68 757.3359999999999 3999.68 L 757.336 3999.6800000000003 Z"/>
      <path id="path24" style="fill-opacity: 1; fill-rule: nonzero; stroke: none; fill: rgb(205, 33, 41);" d="M 3200,576.609 C 1753.78,576.609 577.18,1750 577.18,3200 h 80.281 C 657.461,1810 1798.05,656.891 3200,656.891 c 699.25,0 1351.01,277.73 1835.19,782.519 l 57.96,-55.4 C 4593.66,863.25 3921.34,576.609 3200,576.609"/>
      <path id="path26" style="fill-opacity: 1; fill-rule: nonzero; stroke: none; fill: rgb(205, 33, 41);" d="m 4872.59,1501.26 379.08,128.65 -78.07,-392.62 z"/>
      <path id="path28" style="fill-opacity: 1; fill-rule: nonzero; stroke: none; fill: rgb(205, 33, 41);" d="M 5747.73 2732.41 C 5745.54 2732.41 5743.349999999999 2732.6 5741.099999999999 2732.96 C 5719.249999999999 2736.57 5704.45 2757.27 5708.089999999999 2779.12 C 5730.929999999999 2916.7999999999997 5742.529999999999 3058.0499999999997 5742.529999999999 3198.87 C 5742.529999999999 3221.0299999999997 5760.519999999999 3239.0099999999998 5782.689999999999 3239.0099999999998 C 5804.839999999998 3239.0099999999998 5822.819999999999 3221.0299999999997 5822.819999999999 3198.87 C 5822.819999999999 3053.63 5810.879999999999 2908 5787.279999999999 2766 C 5784.009999999998 2746.34 5766.999999999999 2732.41 5747.729999999999 2732.41 L 5747.73 2732.41 Z"/>
      <path id="path28" style="fill-opacity: 1; fill-rule: nonzero; stroke: none; fill: rgb(205, 33, 41);" d="M 5536.759999999999 2057.42 C 5531.009999999999 2057.42 5525.209999999999 2058.65 5519.659999999999 2061.26 C 5499.619999999999 2070.73 5491.029999999999 2094.6600000000003 5500.479999999999 2114.6800000000003 C 5509.829999999999 2134.5800000000004 5518.989999999999 2154.57 5527.869999999999 2174.7200000000003 C 5536.819999999999 2195.0200000000004 5560.469999999999 2204.2200000000003 5580.799999999999 2195.26 C 5601.079999999999 2186.3 5610.279999999999 2162.6200000000003 5601.32 2142.3300000000004 C 5592.179999999999 2121.5800000000004 5582.759999999999 2100.9400000000005 5573.099999999999 2080.4400000000005 C 5566.249999999999 2065.9400000000005 5551.82 2057.4200000000005 5536.759999999999 2057.4200000000005"/>
      <path id="path28" style="fill-opacity: 1; fill-rule: nonzero; stroke: none; fill: rgb(205, 33, 41);" d="M 5605.73 2217.19 C 5600.87 2217.19 5595.94 2218.08 5591.12 2219.96 C 5570.48 2228.04 5560.28 2251.32 5568.34 2271.9700000000003 C 5581.24 2304.96 5593.4800000000005 2338.2500000000005 5604.7 2370.92 C 5611.9 2391.88 5634.72 2403.02 5655.73 2395.8 C 5676.69 2388.59 5687.82 2365.75 5680.629999999999 2344.79 C 5669.029999999999 2311.1 5656.409999999999 2276.7799999999997 5643.129999999999 2242.75 C 5636.94 2226.91 5621.789999999999 2217.19 5605.73 2217.19 Z"/>
      <path id="path28" style="fill-opacity: 1; fill-rule: nonzero; stroke: none; fill: rgb(205, 33, 41);" d="M 5675.44 2419.67 C 5671.62 2419.67 5667.78 2420.21 5663.95 2421.37 C 5642.69 2427.69 5630.62 2450.06 5636.94 2471.29 C 5656.96 2538.43 5674.349999999999 2607.14 5688.669999999999 2675.54 C 5693.179999999999 2697.2599999999998 5714.699999999999 2711.06 5736.159999999999 2706.62 C 5757.879999999999 2702.0699999999997 5771.779999999999 2680.7999999999997 5767.239999999999 2659.1 C 5752.489999999999 2588.5299999999997 5734.529999999999 2517.62 5713.8899999999985 2448.33 C 5708.6799999999985 2430.93 5692.709999999998 2419.67 5675.439999999999 2419.67 L 5675.44 2419.67 Z"/>
      <path id="path30" style="fill-opacity: 1; fill-rule: nonzero; stroke: none; fill: rgb(205, 33, 41);" d="m 5822.82,3200 h -80.29 c 0,1420 -1140.59,2541.96 -2542.53,2541.96 -698.33,0 -1349.5,-277.67 -1833.52,-781.36 l -57.92,55.49 C 1807.88,5535.68 2479.6,5822.31 3200,5822.31 4646.22,5822.31 5822.82,4640 5822.82,3200"/>
      <path id="path32" style="fill-opacity: 1; fill-rule: nonzero; stroke: none; fill: rgb(205, 33, 41);" d="m 1528.99,4898.04 -379.18,-128.28 78.46,392.54 z"/>
      <path id="path34" style="fill-opacity: 1; fill-rule: nonzero; stroke: none; fill: rgb(205, 33, 41);" d="m 2830.41,3143.82 15.08,16.31 c 10.42,10.49 20.82,21.02 32.04,30.63 10.82,10.07 22.58,19.03 34.14,28.16 11.91,8.7 23.75,17.42 36.27,25.16 12.13,8.31 25.14,15.13 37.79,22.56 13.13,6.5 25.9,13.72 39.37,19.39 l 20.05,8.81 c 6.71,2.82 13.61,5.23 20.41,7.84 13.51,5.46 27.44,9.62 41.24,14.06 13.8,4.55 28.01,7.61 41.94,11.48 14.09,3.32 28.28,6 42.4,9.02 l 0.49,0.12 0.78,0.11 c 14.07,1.9 30.59,6.25 45.65,11.24 15.34,5.09 30.47,11.1 45.18,18.19 14.8,6.9 29.14,14.82 43.1,23.39 13.9,8.7 27.55,17.87 40.47,28.07 6.63,4.92 13,10.14 19.2,15.55 6.37,5.23 12.48,10.8 18.42,16.5 6.13,5.59 12.04,11.33 17.7,17.4 5.78,5.93 11.58,11.87 16.91,18.19 11.14,12.29 21.3,25.43 31.5,38.58 9.67,13.54 19.41,27.03 28.08,41.29 9.32,13.85 16.95,28.75 25.26,43.23 7.45,15.01 15.52,29.69 22.03,45.17 3.38,7.65 6.93,15.26 10.16,23 l 9.2,23.41 c 6.49,15.53 11.17,31.71 16.78,47.54 5.24,16.03 9.57,32.28 14.41,48.44 l 12,49.11 9.9,49.63 8.08,50.02 c 0,0 -151.28,-131.69 -398.76,-159.27 -489.36,-54.49 -495.76,-419.95 -495.76,-419.95 -3.21,-116.21 20.49,-205.34 58.02,-273.76 8.21,11.87 17.02,23.31 26.09,34.45 4.78,5.64 9.46,11.4 14.38,16.93"/>
      <path id="path36" style="fill-opacity: 1; fill-rule: nonzero; stroke: none; fill: rgb(205, 33, 41);" d="m 3626.44,3945.42 -5.91,-50.34 -7.84,-50.17 -9.91,-49.82 c -4.13,-16.41 -7.81,-32.99 -12.36,-49.35 -4.97,-16.2 -9.04,-32.77 -14.9,-48.71 l -8.31,-24.13 c -2.93,-7.97 -6.19,-15.84 -9.31,-23.75 -5.92,-16 -13.48,-31.32 -20.43,-46.9 -7.81,-15.16 -15.03,-30.7 -23.92,-45.34 -8.29,-14.98 -17.69,-29.33 -27.05,-43.7 -9.93,-13.99 -19.86,-28.04 -30.88,-41.27 -5.3,-6.85 -11.04,-13.25 -16.76,-19.68 -5.63,-6.56 -11.53,-12.83 -17.65,-18.95 -5.95,-6.22 -12.13,-12.31 -18.55,-18.09 -6.27,-5.95 -12.76,-11.73 -19.48,-17.2 -13.14,-11.31 -27.15,-21.64 -41.47,-31.46 -14.42,-9.75 -29.33,-18.82 -44.84,-26.92 -15.43,-8.21 -31.43,-15.45 -47.9,-21.7 -16.77,-6.22 -32.79,-11.49 -52.11,-15 l 1.26,0.21 c -13.36,-3.5 -26.79,-6.64 -40.04,-10.35 -13.13,-4.28 -26.45,-7.74 -39.31,-12.6 -12.86,-4.78 -25.85,-9.22 -38.32,-14.89 -6.27,-2.78 -12.6,-5.29 -18.82,-8.18 l -18.35,-9.07 c -12.33,-5.81 -23.9,-13.05 -35.81,-19.58 -11.39,-7.4 -23.17,-14.19 -34.02,-22.35 -11.24,-7.58 -21.74,-16.1 -32.31,-24.51 -10.19,-8.84 -20.62,-17.46 -30.08,-27.08 -9.85,-9.2 -18.9,-19.18 -27.96,-29.12 l -13.05,-15.37 c -4.23,-5.22 -8.23,-10.63 -12.36,-15.91 -8.02,-10.79 -15.76,-21.75 -22.88,-33.11 -4.12,-6.41 -7.98,-12.91 -11.79,-19.5 122.99,-161.06 326.48,-173.44 326.48,-173.44 464.96,6.22 494.03,419.48 494.03,419.48 39.72,323.73 -17.09,657.85 -17.09,657.85"/>
      <path id="path38" style="fill-opacity: 1; fill-rule: nonzero; stroke: none; fill: rgb(205, 33, 41);" d="m 2842.49,3070.12 c -8.53,-12.13 -16.56,-24.62 -24.02,-37.43 -7.64,-12.75 -14.59,-25.9 -21.16,-39.23 -6.56,-13.35 -12.56,-26.97 -18.11,-40.79 -5.54,-13.86 -10.42,-28.03 -14.84,-42.4 -4.4,-14.64 -8.18,-28.54 -11.08,-45.16 -0.11,-0.47 -0.18,-1.02 -0.24,-1.46 -2.27,-17.52 10.11,-33.54 27.62,-35.81 17.52,-2.25 33.54,10.14 35.81,27.65 l 0.06,0.57 c 1.47,11.24 4.36,24.83 7.57,37.38 3.35,12.75 7.17,25.51 11.58,38.11 4.39,12.59 9.25,25.03 14.67,37.27 5.38,12.25 11.12,24.35 17.51,36.17 2.7,5.12 5.54,10.19 8.42,15.21 -11.88,15.55 -22.95,32.51 -33.07,50.94 -0.23,-0.33 -0.5,-0.65 -0.72,-1.02"/>
    </g>
  </g>
</svg>