<?xml version="1.0" encoding="utf-8"?>
<svg viewBox="0 0 32 32" width="32" height="32" style="fill-rule:evenodd;clip-rule:evenodd;stroke-linejoin:round;stroke-miterlimit:2;" xmlns="http://www.w3.org/2000/svg">
  <path d="M23.982,14.206c-1.159,0.414 -1.99,1.523 -1.99,2.825c0,1.659 1.333,2.987 2.992,2.987c0.553,0 1.008,0.448 1.008,1.001c0,0.529 -0.412,0.963 -0.933,0.997c-0.022,-0.001 -0.045,-0.002 -0.067,-0.002c-0.024,-0 -0.048,0.001 -0.071,0.002c-0.519,-0.037 -0.929,-0.469 -0.929,-0.997c0,-0.552 -0.448,-1 -1,-1c-0.552,-0 -1,0.448 -1,1c0,1.302 0.832,2.412 1.993,2.826l-0.005,1.163c-0.002,0.552 0.444,1.002 0.996,1.004c0.552,0.003 1.002,-0.444 1.004,-0.996l0.005,-1.166c1.168,-0.41 2.007,-1.523 2.007,-2.831c0,-1.655 -1.354,-3.001 -3.008,-3.001c-0.549,0 -0.992,-0.438 -0.992,-0.987c0,-0.552 0.448,-1 1,-1c0.55,0 0.997,0.445 1,0.994l0,0.013c0.004,0.548 0.45,0.993 1,0.993c0.552,0 1,-0.448 1,-1c0,-1.309 -0.84,-2.423 -2.01,-2.832l0.01,-1.179c0.004,-0.552 -0.44,-1.003 -0.992,-1.008c-0.552,-0.004 -1.004,0.441 -1.008,0.992l-0.01,1.202Z" style="fill: rgb(205, 33, 41);" transform="matrix(1, 0, 0, 1, 4.440892098500626e-16, 0)"/>
  <path d="M21.98,25.012l-10.98,0c-0.552,0 -1,-0.448 -1,-1c-0,-0.552 0.448,-1 1,-1l9.406,0c-0.265,-0.607 -0.412,-1.277 -0.414,-1.981l-8.992,-0c-0.552,-0 -1,-0.448 -1,-1c0,-0.552 0.448,-1 1,-1l9.406,-0c-0.267,-0.611 -0.414,-1.287 -0.414,-2l0,-0.012l-8.992,-0c-0.552,-0 -1,-0.448 -1,-1c0,-0.552 0.448,-1 1,-1l9.414,-0c0.349,-0.791 0.896,-1.474 1.578,-1.987l-0,-0.043c0.013,-1.656 1.368,-2.99 3.024,-2.977c0.345,0.003 0.676,0.064 0.984,0.174l0,-5.186c-0,-0.796 -0.316,-1.559 -0.879,-2.121c-0.562,-0.563 -1.325,-0.879 -2.121,-0.879c-3.463,0 -10.537,0 -14,0c-0.796,-0 -1.559,0.316 -2.121,0.879c-0.563,0.562 -0.879,1.325 -0.879,2.121l0,22c0,0.796 0.316,1.559 0.879,2.121c0.562,0.563 1.325,0.879 2.121,0.879l14,0c1.351,0 2.494,-0.893 2.869,-2.122c-0.284,0.088 -0.587,0.136 -0.901,0.134c-1.652,-0.006 -2.988,-1.349 -2.988,-3Zm-6.978,-17.012l-0.998,0c-0.552,0 -1,0.448 -1,1c0,0.552 0.448,1 1,1l1.002,-0l0.002,1.002c0.001,0.552 0.45,0.999 1.002,0.998c0.552,-0.001 0.999,-0.45 0.998,-1.002l-0.002,-0.998l0.998,0c0.552,0 1,-0.448 1,-1c0,-0.552 -0.448,-1 -1,-1l-1.002,0l-0.002,-1.002c-0.001,-0.552 -0.45,-0.999 -1.002,-0.998c-0.552,0.001 -0.999,0.45 -0.998,1.002l0.002,0.998Z" style="fill: rgb(205, 33, 41);" transform="matrix(1, 0, 0, 1, 4.440892098500626e-16, 0)"/>
  <g id="Icon" transform="matrix(1, 0, 0, 1, 4.440892098500626e-16, 0)"/>
</svg>