<?xml version="1.0" encoding="utf-8"?>
<svg viewBox="0 0 64 64" width="64" height="64" xmlns="http://www.w3.org/2000/svg">
  <g id="Speculate" transform="matrix(1, 0, 0, 1, 8.881784197001252e-16, 0)">
    <path d="M33.91,23.0507H28.4021a1.625,1.625,0,1,0,0,3.25h2.542V28.082a1.625,1.625,0,0,0,3.25,0v-1.81A4.44,4.44,0,0,0,33.91,17.4H31.4392a1.4124,1.4124,0,0,1,0-2.8247h5.5537a1.625,1.625,0,0,0,0-3.25H34.1941V9.5444a1.625,1.625,0,0,0-3.25,0v1.8308a4.65,4.65,0,0,0,.4951,9.2746H33.91a1.2,1.2,0,0,1,0,2.4009Z" style="fill: rgb(111, 127, 138);"/>
    <path d="M54.0124,15.8256a1.6266,1.6266,0,0,0-2.2978-.0551L50.072,17.3359A17.6851,17.6851,0,0,0,17.82,8.7a1.6249,1.6249,0,0,0,2.6835,1.833,14.4412,14.4412,0,0,1,26.3218,6.87l-1.56-1.38a1.6254,1.6254,0,0,0-2.1543,2.4346l4.3252,3.8266a1.6258,1.6258,0,0,0,2.1982-.041l4.3223-4.12A1.6252,1.6252,0,0,0,54.0124,15.8256Z" style="fill: rgb(111, 127, 138);"/>
    <path d="M47.49,26.1992a1.6253,1.6253,0,0,0-2.2364.5293A14.4417,14.4417,0,0,1,18.57,20.4172l1.56,1.38a1.6254,1.6254,0,0,0,2.1543-2.4346l-4.3261-3.8271a1.6269,1.6269,0,0,0-2.2686.1118l-3.8232,4.12a1.6253,1.6253,0,0,0,2.3828,2.211l1.09-1.1756a17.6932,17.6932,0,0,0,32.68,7.6326A1.6248,1.6248,0,0,0,47.49,26.1992Z" style="fill: rgb(111, 127, 138);"/>
    <path d="M16.8157,40.4125H10.9712a.93.93,0,0,0-.93.93V61.2885a.93.93,0,0,0,.93.93h5.8445a2.0268,2.0268,0,0,0,2.0268-2.0269V42.4394A2.0269,2.0269,0,0,0,16.8157,40.4125Z" style="fill: rgb(111, 127, 138);"/>
    <path d="M53.7527,42.6953a3.4981,3.4981,0,0,0-2.93-1.5787h-2.29a5.0554,5.0554,0,0,0-4.6865,3.1358,5.0051,5.0051,0,0,1-1.3789,1.8911,7.4182,7.4182,0,0,1-5.644,2.8929l-6.7881.0005a1.35,1.35,0,0,1,0-2.7h6.7519a4.4773,4.4773,0,0,0,2.74-1.036,4.7153,4.7153,0,0,0-4.7038-4.1841H29.8454A7.0069,7.0069,0,0,0,24.87,43.1718l-.127.1265a6.3542,6.3542,0,0,1-3.2012,1.729v13.54h17.97a13.86,13.86,0,0,0,12.7461-8.396l1.788-4.1616A3.4972,3.4972,0,0,0,53.7527,42.6953Z" style="fill: rgb(111, 127, 138);"/>
  </g>
</svg>