<?xml version="1.0" encoding="utf-8"?>
<svg viewBox="0 0 32 32" width="32" height="32" style="fill-rule:evenodd;clip-rule:evenodd;stroke-linejoin:round;stroke-miterlimit:2;" xmlns="http://www.w3.org/2000/svg">
  <circle cx="10" cy="7" r="5" style="fill: rgb(111, 127, 138);" transform="matrix(1, 0, 0, 1, 4.440892098500626e-16, 0)"/>
  <circle cx="22" cy="9" r="5" style="fill: rgb(111, 127, 138);" transform="matrix(1, 0, 0, 1, 4.440892098500626e-16, 0)"/>
  <path d="M2.456,16.67c-0.265,0.214 -0.402,0.549 -0.364,0.888c0.779,6.992 6.715,12.436 13.913,12.436c1.825,-0 3.57,-0.351 5.168,-0.987c0.318,-0.126 0.549,-0.405 0.613,-0.741c0.14,-0.734 0.214,-1.491 0.214,-2.266c0,-6.623 -5.377,-12 -12,-12c-2.857,-0 -5.482,1 -7.544,2.67Z" style="fill: rgb(111, 127, 138);" transform="matrix(1, 0, 0, 1, 4.440892098500626e-16, 0)"/>
  <path d="M19.967,16.172c2.493,2.529 4.033,6 4.033,9.828c0,0.522 -0.029,1.036 -0.085,1.543c2.761,-1.895 4.81,-4.755 5.659,-8.091c0.099,-0.391 -0.046,-0.803 -0.368,-1.046c-2.007,-1.51 -4.503,-2.406 -7.206,-2.406c-0.693,0 -1.372,0.059 -2.033,0.172Z" style="fill: rgb(111, 127, 138);" transform="matrix(1, 0, 0, 1, 4.440892098500626e-16, 0)"/>
</svg>